<svg width="127" height="10" viewBox="0 0 127 10" fill="none" xmlns="http://www.w3.org/2000/svg">
<path d="M7.36363 3H6.30682C6.24432 2.69602 6.13494 2.42898 5.97869 2.19886C5.82528 1.96875 5.63778 1.77557 5.41619 1.61932C5.19744 1.46023 4.95454 1.34091 4.6875 1.26136C4.42045 1.18182 4.14204 1.14205 3.85227 1.14205C3.32386 1.14205 2.84517 1.27557 2.41619 1.54261C1.99005 1.80966 1.65057 2.20312 1.39772 2.72301C1.14772 3.2429 1.02272 3.88068 1.02272 4.63636C1.02272 5.39205 1.14772 6.02983 1.39772 6.54972C1.65057 7.0696 1.99005 7.46307 2.41619 7.73011C2.84517 7.99716 3.32386 8.13068 3.85227 8.13068C4.14204 8.13068 4.42045 8.09091 4.6875 8.01136C4.95454 7.93182 5.19744 7.81392 5.41619 7.65767C5.63778 7.49858 5.82528 7.30398 5.97869 7.07386C6.13494 6.84091 6.24432 6.57386 6.30682 6.27273H7.36363C7.28409 6.71875 7.1392 7.1179 6.92897 7.47017C6.71875 7.82244 6.45738 8.12216 6.14488 8.36932C5.83238 8.61364 5.48153 8.79972 5.09233 8.92756C4.70596 9.0554 4.29261 9.11932 3.85227 9.11932C3.10795 9.11932 2.44602 8.9375 1.86647 8.57386C1.28693 8.21023 0.830963 7.69318 0.498577 7.02273C0.16619 6.35227 -2.74181e-06 5.55682 -2.74181e-06 4.63636C-2.74181e-06 3.71591 0.16619 2.92045 0.498577 2.25C0.830963 1.57955 1.28693 1.0625 1.86647 0.698864C2.44602 0.335227 3.10795 0.153409 3.85227 0.153409C4.29261 0.153409 4.70596 0.217329 5.09233 0.34517C5.48153 0.473011 5.83238 0.660511 6.14488 0.90767C6.45738 1.15199 6.71875 1.45028 6.92897 1.80256C7.1392 2.15199 7.28409 2.55114 7.36363 3ZM9.94069 5.0625V9H8.93501V0.272727H9.94069V3.47727H10.0259C10.1793 3.1392 10.4094 2.87074 10.7163 2.67188C11.0259 2.47017 11.4379 2.36932 11.9521 2.36932C12.3981 2.36932 12.7887 2.45881 13.1239 2.63778C13.4592 2.81392 13.7191 3.08523 13.9038 3.4517C14.0913 3.81534 14.185 4.27841 14.185 4.84091V9H13.1793V4.90909C13.1793 4.3892 13.0444 3.98722 12.7745 3.70312C12.5075 3.41619 12.1367 3.27273 11.6623 3.27273C11.3327 3.27273 11.0373 3.34233 10.7759 3.48153C10.5174 3.62074 10.3129 3.82386 10.1623 4.09091C10.0146 4.35795 9.94069 4.68182 9.94069 5.0625ZM16.0249 9V2.45455H16.9964V3.44318H17.0646C17.1839 3.11932 17.3999 2.85653 17.7124 2.65483C18.0249 2.45312 18.3771 2.35227 18.7692 2.35227C18.843 2.35227 18.9354 2.35369 19.0462 2.35653C19.157 2.35937 19.2408 2.36364 19.2976 2.36932V3.39205C19.2635 3.38352 19.1854 3.37074 19.0632 3.35369C18.9439 3.33381 18.8175 3.32386 18.6839 3.32386C18.3658 3.32386 18.0817 3.39062 17.8317 3.52415C17.5845 3.65483 17.3885 3.83665 17.2436 4.0696C17.1016 4.29972 17.0305 4.5625 17.0305 4.85795V9H16.0249ZM20.4897 9V2.45455H21.4954V9H20.4897ZM21.0011 1.36364C20.805 1.36364 20.636 1.29688 20.494 1.16335C20.3548 1.02983 20.2852 0.869318 20.2852 0.681818C20.2852 0.494318 20.3548 0.333807 20.494 0.200284C20.636 0.0667613 20.805 0 21.0011 0C21.1971 0 21.3647 0.0667613 21.5039 0.200284C21.6459 0.333807 21.717 0.494318 21.717 0.681818C21.717 0.869318 21.6459 1.02983 21.5039 1.16335C21.3647 1.29688 21.1971 1.36364 21.0011 1.36364ZM27.9737 3.92045L27.0703 4.17614C27.0135 4.02557 26.9297 3.87926 26.8189 3.73722C26.7109 3.59233 26.5632 3.47301 26.3757 3.37926C26.1882 3.28551 25.9482 3.23864 25.6555 3.23864C25.255 3.23864 24.9212 3.33097 24.6541 3.51562C24.3899 3.69744 24.2578 3.92898 24.2578 4.21023C24.2578 4.46023 24.3487 4.65767 24.5305 4.80256C24.7124 4.94744 24.9964 5.06818 25.3828 5.16477L26.3544 5.40341C26.9396 5.54545 27.3757 5.76278 27.6626 6.0554C27.9496 6.34517 28.093 6.71875 28.093 7.17614C28.093 7.55114 27.9851 7.88636 27.7692 8.18182C27.5561 8.47727 27.2578 8.71023 26.8743 8.88068C26.4908 9.05114 26.0447 9.13636 25.5362 9.13636C24.8686 9.13636 24.316 8.99148 23.8785 8.7017C23.441 8.41193 23.1641 7.98864 23.0476 7.43182L24.0021 7.19318C24.093 7.54545 24.2649 7.80966 24.5178 7.9858C24.7734 8.16193 25.1072 8.25 25.5192 8.25C25.9879 8.25 26.3601 8.15057 26.6357 7.9517C26.9141 7.75 27.0533 7.50852 27.0533 7.22727C27.0533 7 26.9737 6.80966 26.8146 6.65625C26.6555 6.5 26.4112 6.38352 26.0817 6.30682L24.9908 6.05114C24.3913 5.90909 23.951 5.68892 23.6697 5.39062C23.3913 5.08949 23.2521 4.71307 23.2521 4.26136C23.2521 3.89205 23.3558 3.56534 23.5632 3.28125C23.7734 2.99716 24.0589 2.77415 24.4197 2.61222C24.7834 2.45028 25.1953 2.36932 25.6555 2.36932C26.3033 2.36932 26.8118 2.51136 27.1811 2.79545C27.5533 3.07955 27.8175 3.45455 27.9737 3.92045ZM32.4535 2.45455V3.30682H29.0614V2.45455H32.4535ZM30.0501 0.886364H31.0558V7.125C31.0558 7.40909 31.0969 7.62216 31.1793 7.7642C31.2646 7.90341 31.3725 7.99716 31.5032 8.04545C31.6367 8.09091 31.7773 8.11364 31.9251 8.11364C32.0359 8.11364 32.1268 8.10795 32.1978 8.09659C32.2688 8.08239 32.3256 8.07102 32.3683 8.0625L32.5728 8.96591C32.5046 8.99148 32.4094 9.01705 32.2873 9.04261C32.1651 9.07102 32.0103 9.08523 31.8228 9.08523C31.5387 9.08523 31.2603 9.02415 30.9876 8.90199C30.7177 8.77983 30.4933 8.59375 30.3143 8.34375C30.1381 8.09375 30.0501 7.77841 30.0501 7.39773V0.886364ZM33.9663 9V2.45455H34.9719V9H33.9663ZM34.4776 1.36364C34.2816 1.36364 34.1126 1.29688 33.9705 1.16335C33.8313 1.02983 33.7617 0.869318 33.7617 0.681818C33.7617 0.494318 33.8313 0.333807 33.9705 0.200284C34.1126 0.0667613 34.2816 0 34.4776 0C34.6736 0 34.8413 0.0667613 34.9805 0.200284C35.1225 0.333807 35.1935 0.494318 35.1935 0.681818C35.1935 0.869318 35.1225 1.02983 34.9805 1.16335C34.8413 1.29688 34.6736 1.36364 34.4776 1.36364ZM38.7401 9.15341C38.3253 9.15341 37.9489 9.07528 37.6108 8.91903C37.2727 8.75994 37.0043 8.53125 36.8054 8.23295C36.6065 7.93182 36.5071 7.56818 36.5071 7.14205C36.5071 6.76705 36.581 6.46307 36.7287 6.23011C36.8764 5.99432 37.0739 5.80966 37.321 5.67614C37.5682 5.54261 37.8409 5.44318 38.1392 5.37784C38.4403 5.30966 38.7429 5.25568 39.0469 5.21591C39.4446 5.16477 39.767 5.12642 40.0142 5.10085C40.2642 5.07244 40.446 5.02557 40.5597 4.96023C40.6761 4.89489 40.7344 4.78125 40.7344 4.61932V4.58523C40.7344 4.16477 40.6193 3.83807 40.3892 3.60511C40.1619 3.37216 39.8168 3.25568 39.3537 3.25568C38.8736 3.25568 38.4972 3.3608 38.2244 3.57102C37.9517 3.78125 37.7599 4.00568 37.6491 4.24432L36.6946 3.90341C36.8651 3.50568 37.0923 3.19602 37.3764 2.97443C37.6633 2.75 37.9758 2.59375 38.3139 2.50568C38.6548 2.41477 38.9901 2.36932 39.3196 2.36932C39.5298 2.36932 39.7713 2.39489 40.044 2.44602C40.3196 2.49432 40.5852 2.59517 40.8409 2.74858C41.0994 2.90199 41.3139 3.13352 41.4844 3.44318C41.6548 3.75284 41.7401 4.16761 41.7401 4.6875V9H40.7344V8.11364H40.6832C40.6151 8.25568 40.5014 8.40767 40.3423 8.5696C40.1832 8.73153 39.9716 8.86932 39.7074 8.98295C39.4432 9.09659 39.1207 9.15341 38.7401 9.15341ZM38.8935 8.25C39.2912 8.25 39.6264 8.17188 39.8991 8.01562C40.1747 7.85938 40.3821 7.65767 40.5213 7.41051C40.6633 7.16335 40.7344 6.90341 40.7344 6.63068V5.71023C40.6918 5.76136 40.598 5.80824 40.4531 5.85085C40.3111 5.89062 40.1463 5.92614 39.9588 5.95739C39.7741 5.9858 39.5937 6.01136 39.4176 6.03409C39.2443 6.05398 39.1037 6.07102 38.9957 6.08523C38.7344 6.11932 38.4901 6.17472 38.2628 6.25142C38.0383 6.32528 37.8565 6.4375 37.7173 6.58807C37.581 6.7358 37.5128 6.9375 37.5128 7.19318C37.5128 7.54261 37.642 7.80682 37.9006 7.9858C38.1619 8.16193 38.4929 8.25 38.8935 8.25ZM44.5813 5.0625V9H43.5756V2.45455H44.5472V3.47727H44.6325C44.7859 3.14489 45.0188 2.87784 45.3313 2.67614C45.6438 2.47159 46.0472 2.36932 46.5415 2.36932C46.9847 2.36932 47.3725 2.46023 47.7049 2.64205C48.0373 2.82102 48.2958 3.09375 48.4805 3.46023C48.6651 3.82386 48.7575 4.28409 48.7575 4.84091V9H47.7518V4.90909C47.7518 4.39489 47.6183 3.99432 47.3512 3.70739C47.0842 3.41761 46.7177 3.27273 46.2518 3.27273C45.9308 3.27273 45.6438 3.34233 45.391 3.48153C45.141 3.62074 44.9435 3.82386 44.7986 4.09091C44.6538 4.35795 44.5813 4.68182 44.5813 5.0625ZM58.8793 2.45455C58.8281 2.02273 58.6207 1.6875 58.2571 1.44886C57.8935 1.21023 57.4474 1.09091 56.919 1.09091C56.5327 1.09091 56.1946 1.15341 55.9048 1.27841C55.6179 1.40341 55.3935 1.57528 55.2315 1.79403C55.0724 2.01278 54.9929 2.26136 54.9929 2.53977C54.9929 2.77273 55.0483 2.97301 55.1591 3.14062C55.2727 3.3054 55.4176 3.44318 55.5937 3.55398C55.7699 3.66193 55.9545 3.75142 56.1477 3.82244C56.3409 3.89062 56.5185 3.94602 56.6804 3.98864L57.5668 4.22727C57.794 4.28693 58.0469 4.36932 58.3253 4.47443C58.6065 4.57955 58.875 4.72301 59.1307 4.90483C59.3892 5.08381 59.6023 5.31392 59.7699 5.59517C59.9375 5.87642 60.0213 6.22159 60.0213 6.63068C60.0213 7.10227 59.8977 7.52841 59.6506 7.90909C59.4062 8.28977 59.0483 8.59233 58.5767 8.81676C58.108 9.04119 57.5383 9.15341 56.8679 9.15341C56.2429 9.15341 55.7017 9.05256 55.2443 8.85085C54.7898 8.64915 54.4318 8.3679 54.1705 8.0071C53.9119 7.64631 53.7656 7.22727 53.7315 6.75H54.8224C54.8508 7.07955 54.9616 7.35227 55.1548 7.56818C55.3508 7.78125 55.598 7.94034 55.8963 8.04545C56.1974 8.14773 56.5213 8.19886 56.8679 8.19886C57.2713 8.19886 57.6335 8.13352 57.9545 8.00284C58.2756 7.86932 58.5298 7.68466 58.7173 7.44886C58.9048 7.21023 58.9986 6.93182 58.9986 6.61364C58.9986 6.32386 58.9176 6.08807 58.7557 5.90625C58.5937 5.72443 58.3807 5.5767 58.1165 5.46307C57.8523 5.34943 57.5668 5.25 57.2599 5.16477L56.1861 4.85795C55.5043 4.66193 54.9645 4.3821 54.5668 4.01847C54.169 3.65483 53.9702 3.17898 53.9702 2.59091C53.9702 2.10227 54.1023 1.67614 54.3665 1.3125C54.6335 0.946023 54.9915 0.661932 55.4403 0.460227C55.892 0.255682 56.3963 0.153409 56.9531 0.153409C57.5156 0.153409 58.0156 0.254261 58.4531 0.455966C58.8906 0.654829 59.2372 0.927556 59.4929 1.27415C59.7514 1.62074 59.8878 2.0142 59.902 2.45455H58.8793ZM63.5486 9.15341C63.1339 9.15341 62.7575 9.07528 62.4194 8.91903C62.0813 8.75994 61.8129 8.53125 61.614 8.23295C61.4151 7.93182 61.3157 7.56818 61.3157 7.14205C61.3157 6.76705 61.3896 6.46307 61.5373 6.23011C61.685 5.99432 61.8825 5.80966 62.1296 5.67614C62.3768 5.54261 62.6495 5.44318 62.9478 5.37784C63.2489 5.30966 63.5515 5.25568 63.8555 5.21591C64.2532 5.16477 64.5756 5.12642 64.8228 5.10085C65.0728 5.07244 65.2546 5.02557 65.3683 4.96023C65.4847 4.89489 65.543 4.78125 65.543 4.61932V4.58523C65.543 4.16477 65.4279 3.83807 65.1978 3.60511C64.9705 3.37216 64.6254 3.25568 64.1623 3.25568C63.6822 3.25568 63.3058 3.3608 63.033 3.57102C62.7603 3.78125 62.5685 4.00568 62.4577 4.24432L61.5032 3.90341C61.6736 3.50568 61.9009 3.19602 62.185 2.97443C62.4719 2.75 62.7844 2.59375 63.1225 2.50568C63.4634 2.41477 63.7986 2.36932 64.1282 2.36932C64.3384 2.36932 64.5799 2.39489 64.8526 2.44602C65.1282 2.49432 65.3938 2.59517 65.6495 2.74858C65.908 2.90199 66.1225 3.13352 66.293 3.44318C66.4634 3.75284 66.5486 4.16761 66.5486 4.6875V9H65.543V8.11364H65.4918C65.4236 8.25568 65.31 8.40767 65.1509 8.5696C64.9918 8.73153 64.7802 8.86932 64.516 8.98295C64.2518 9.09659 63.9293 9.15341 63.5486 9.15341ZM63.7021 8.25C64.0998 8.25 64.435 8.17188 64.7077 8.01562C64.9833 7.85938 65.1907 7.65767 65.3299 7.41051C65.4719 7.16335 65.543 6.90341 65.543 6.63068V5.71023C65.5004 5.76136 65.4066 5.80824 65.2617 5.85085C65.1197 5.89062 64.9549 5.92614 64.7674 5.95739C64.5827 5.9858 64.4023 6.01136 64.2262 6.03409C64.0529 6.05398 63.9123 6.07102 63.8043 6.08523C63.543 6.11932 63.2986 6.17472 63.0714 6.25142C62.8469 6.32528 62.6651 6.4375 62.5259 6.58807C62.3896 6.7358 62.3214 6.9375 62.3214 7.19318C62.3214 7.54261 62.4506 7.80682 62.7092 7.9858C62.9705 8.16193 63.3015 8.25 63.7021 8.25ZM69.3899 5.0625V9H68.3842V2.45455H69.3558V3.47727H69.441C69.5945 3.14489 69.8274 2.87784 70.1399 2.67614C70.4524 2.47159 70.8558 2.36932 71.3501 2.36932C71.7933 2.36932 72.1811 2.46023 72.5135 2.64205C72.8459 2.82102 73.1044 3.09375 73.2891 3.46023C73.4737 3.82386 73.566 4.28409 73.566 4.84091V9H72.5604V4.90909C72.5604 4.39489 72.4268 3.99432 72.1598 3.70739C71.8928 3.41761 71.5263 3.27273 71.0604 3.27273C70.7393 3.27273 70.4524 3.34233 70.1996 3.48153C69.9496 3.62074 69.7521 3.82386 69.6072 4.09091C69.4624 4.35795 69.3899 4.68182 69.3899 5.0625ZM78.2504 2.45455V3.30682H74.8583V2.45455H78.2504ZM75.8469 0.886364H76.8526V7.125C76.8526 7.40909 76.8938 7.62216 76.9762 7.7642C77.0614 7.90341 77.1694 7.99716 77.3001 8.04545C77.4336 8.09091 77.5742 8.11364 77.7219 8.11364C77.8327 8.11364 77.9236 8.10795 77.9947 8.09659C78.0657 8.08239 78.1225 8.07102 78.1651 8.0625L78.3697 8.96591C78.3015 8.99148 78.2063 9.01705 78.0842 9.04261C77.962 9.07102 77.8072 9.08523 77.6197 9.08523C77.3356 9.08523 77.0572 9.02415 76.7844 8.90199C76.5146 8.77983 76.2901 8.59375 76.1111 8.34375C75.935 8.09375 75.8469 7.77841 75.8469 7.39773V0.886364ZM82.3519 9.13636C81.761 9.13636 81.2425 8.99574 80.7965 8.71449C80.3533 8.43324 80.0067 8.03977 79.7567 7.53409C79.5096 7.02841 79.386 6.4375 79.386 5.76136C79.386 5.07955 79.5096 4.48437 79.7567 3.97585C80.0067 3.46733 80.3533 3.07244 80.7965 2.79119C81.2425 2.50994 81.761 2.36932 82.3519 2.36932C82.9428 2.36932 83.4599 2.50994 83.9031 2.79119C84.3491 3.07244 84.6957 3.46733 84.9428 3.97585C85.1928 4.48437 85.3178 5.07955 85.3178 5.76136C85.3178 6.4375 85.1928 7.02841 84.9428 7.53409C84.6957 8.03977 84.3491 8.43324 83.9031 8.71449C83.4599 8.99574 82.9428 9.13636 82.3519 9.13636ZM82.3519 8.23295C82.8008 8.23295 83.1701 8.1179 83.4599 7.88778C83.7496 7.65767 83.9641 7.35511 84.1033 6.98011C84.2425 6.60511 84.3121 6.19886 84.3121 5.76136C84.3121 5.32386 84.2425 4.91619 84.1033 4.53835C83.9641 4.16051 83.7496 3.85511 83.4599 3.62216C83.1701 3.3892 82.8008 3.27273 82.3519 3.27273C81.9031 3.27273 81.5337 3.3892 81.244 3.62216C80.9542 3.85511 80.7397 4.16051 80.6005 4.53835C80.4613 4.91619 80.3917 5.32386 80.3917 5.76136C80.3917 6.19886 80.4613 6.60511 80.6005 6.98011C80.7397 7.35511 80.9542 7.65767 81.244 7.88778C81.5337 8.1179 81.9031 8.23295 82.3519 8.23295ZM91.4893 3.92045L90.5859 4.17614C90.5291 4.02557 90.4453 3.87926 90.3345 3.73722C90.2266 3.59233 90.0788 3.47301 89.8913 3.37926C89.7038 3.28551 89.4638 3.23864 89.1712 3.23864C88.7706 3.23864 88.4368 3.33097 88.1697 3.51562C87.9055 3.69744 87.7734 3.92898 87.7734 4.21023C87.7734 4.46023 87.8643 4.65767 88.0462 4.80256C88.228 4.94744 88.5121 5.06818 88.8984 5.16477L89.87 5.40341C90.4553 5.54545 90.8913 5.76278 91.1783 6.0554C91.4652 6.34517 91.6087 6.71875 91.6087 7.17614C91.6087 7.55114 91.5007 7.88636 91.2848 8.18182C91.0717 8.47727 90.7734 8.71023 90.3899 8.88068C90.0064 9.05114 89.5604 9.13636 89.0518 9.13636C88.3842 9.13636 87.8317 8.99148 87.3942 8.7017C86.9567 8.41193 86.6797 7.98864 86.5632 7.43182L87.5178 7.19318C87.6087 7.54545 87.7805 7.80966 88.0334 7.9858C88.2891 8.16193 88.6229 8.25 89.0348 8.25C89.5035 8.25 89.8757 8.15057 90.1513 7.9517C90.4297 7.75 90.5689 7.50852 90.5689 7.22727C90.5689 7 90.4893 6.80966 90.3303 6.65625C90.1712 6.5 89.9268 6.38352 89.5973 6.30682L88.5064 6.05114C87.907 5.90909 87.4666 5.68892 87.1854 5.39062C86.907 5.08949 86.7678 4.71307 86.7678 4.26136C86.7678 3.89205 86.8714 3.56534 87.0788 3.28125C87.2891 2.99716 87.5746 2.77415 87.9354 2.61222C88.299 2.45028 88.7109 2.36932 89.1712 2.36932C89.8189 2.36932 90.3274 2.51136 90.6967 2.79545C91.0689 3.07955 91.3331 3.45455 91.4893 3.92045ZM96.9918 0.272727L99.5827 7.61932H99.685L102.276 0.272727H103.384L100.179 9H99.0884L95.8839 0.272727H96.9918ZM104.607 9V2.45455H105.613V9H104.607ZM105.118 1.36364C104.922 1.36364 104.753 1.29688 104.611 1.16335C104.472 1.02983 104.402 0.869318 104.402 0.681818C104.402 0.494318 104.472 0.333807 104.611 0.200284C104.753 0.0667613 104.922 0 105.118 0C105.314 0 105.482 0.0667613 105.621 0.200284C105.763 0.333807 105.834 0.494318 105.834 0.681818C105.834 0.869318 105.763 1.02983 105.621 1.16335C105.482 1.29688 105.314 1.36364 105.118 1.36364ZM110.199 9.13636C109.568 9.13636 109.024 8.99716 108.567 8.71875C108.112 8.4375 107.761 8.04545 107.514 7.54261C107.27 7.03693 107.148 6.44886 107.148 5.77841C107.148 5.10795 107.27 4.51705 107.514 4.00568C107.761 3.49148 108.105 3.09091 108.545 2.80398C108.989 2.5142 109.506 2.36932 110.097 2.36932C110.437 2.36932 110.774 2.42614 111.107 2.53977C111.439 2.65341 111.741 2.83807 112.014 3.09375C112.287 3.34659 112.504 3.68182 112.666 4.09943C112.828 4.51705 112.909 5.03125 112.909 5.64205V6.06818H107.864V5.19886H111.886C111.886 4.82955 111.812 4.5 111.665 4.21023C111.52 3.92045 111.312 3.69176 111.043 3.52415C110.776 3.35653 110.46 3.27273 110.097 3.27273C109.696 3.27273 109.349 3.37216 109.057 3.57102C108.767 3.76705 108.544 4.02273 108.388 4.33807C108.232 4.65341 108.153 4.99148 108.153 5.35227V5.93182C108.153 6.42614 108.239 6.84517 108.409 7.18892C108.582 7.52983 108.822 7.78977 109.129 7.96875C109.436 8.14489 109.793 8.23295 110.199 8.23295C110.463 8.23295 110.702 8.19602 110.915 8.12216C111.131 8.04545 111.317 7.93182 111.473 7.78125C111.629 7.62784 111.75 7.4375 111.835 7.21023L112.807 7.48295C112.705 7.8125 112.533 8.10227 112.291 8.35227C112.05 8.59943 111.751 8.79261 111.396 8.93182C111.041 9.06818 110.642 9.13636 110.199 9.13636ZM114.439 9V2.45455H115.445V9H114.439ZM114.95 1.36364C114.754 1.36364 114.585 1.29688 114.443 1.16335C114.304 1.02983 114.234 0.869318 114.234 0.681818C114.234 0.494318 114.304 0.333807 114.443 0.200284C114.585 0.0667613 114.754 0 114.95 0C115.146 0 115.314 0.0667613 115.453 0.200284C115.595 0.333807 115.666 0.494318 115.666 0.681818C115.666 0.869318 115.595 1.02983 115.453 1.16335C115.314 1.29688 115.146 1.36364 114.95 1.36364ZM117.287 9V2.45455H118.258V3.44318H118.326C118.446 3.11932 118.662 2.85653 118.974 2.65483C119.287 2.45312 119.639 2.35227 120.031 2.35227C120.105 2.35227 120.197 2.35369 120.308 2.35653C120.419 2.35937 120.502 2.36364 120.559 2.36932V3.39205C120.525 3.38352 120.447 3.37074 120.325 3.35369C120.206 3.33381 120.079 3.32386 119.946 3.32386C119.627 3.32386 119.343 3.39062 119.093 3.52415C118.846 3.65483 118.65 3.83665 118.505 4.0696C118.363 4.29972 118.292 4.5625 118.292 4.85795V9H117.287ZM123.678 9.15341C123.263 9.15341 122.886 9.07528 122.548 8.91903C122.21 8.75994 121.942 8.53125 121.743 8.23295C121.544 7.93182 121.445 7.56818 121.445 7.14205C121.445 6.76705 121.518 6.46307 121.666 6.23011C121.814 5.99432 122.011 5.80966 122.259 5.67614C122.506 5.54261 122.778 5.44318 123.077 5.37784C123.378 5.30966 123.68 5.25568 123.984 5.21591C124.382 5.16477 124.705 5.12642 124.952 5.10085C125.202 5.07244 125.384 5.02557 125.497 4.96023C125.614 4.89489 125.672 4.78125 125.672 4.61932V4.58523C125.672 4.16477 125.557 3.83807 125.327 3.60511C125.099 3.37216 124.754 3.25568 124.291 3.25568C123.811 3.25568 123.435 3.3608 123.162 3.57102C122.889 3.78125 122.697 4.00568 122.587 4.24432L121.632 3.90341C121.803 3.50568 122.03 3.19602 122.314 2.97443C122.601 2.75 122.913 2.59375 123.251 2.50568C123.592 2.41477 123.928 2.36932 124.257 2.36932C124.467 2.36932 124.709 2.39489 124.982 2.44602C125.257 2.49432 125.523 2.59517 125.778 2.74858C126.037 2.90199 126.251 3.13352 126.422 3.44318C126.592 3.75284 126.678 4.16761 126.678 4.6875V9H125.672V8.11364H125.621C125.553 8.25568 125.439 8.40767 125.28 8.5696C125.121 8.73153 124.909 8.86932 124.645 8.98295C124.381 9.09659 124.058 9.15341 123.678 9.15341ZM123.831 8.25C124.229 8.25 124.564 8.17188 124.837 8.01562C125.112 7.85938 125.32 7.65767 125.459 7.41051C125.601 7.16335 125.672 6.90341 125.672 6.63068V5.71023C125.629 5.76136 125.536 5.80824 125.391 5.85085C125.249 5.89062 125.084 5.92614 124.896 5.95739C124.712 5.9858 124.531 6.01136 124.355 6.03409C124.182 6.05398 124.041 6.07102 123.933 6.08523C123.672 6.11932 123.428 6.17472 123.2 6.25142C122.976 6.32528 122.794 6.4375 122.655 6.58807C122.518 6.7358 122.45 6.9375 122.45 7.19318C122.45 7.54261 122.58 7.80682 122.838 7.9858C123.099 8.16193 123.43 8.25 123.831 8.25Z" fill="black"/>
</svg>
